M48
; DRILL file {KiCad (6.0.1)} date Sun Feb 26 19:23:06 2023
; FORMAT={-:-/ absolute / metric / decimal}
; #@! TF.CreationDate,2023-02-26T19:23:06-08:00
; #@! TF.GenerationSoftware,Kicad,Pcbnew,(6.0.1)
; #@! TF.FileFunction,Plated,1,2,PTH
FMAT,2
METRIC
; #@! TA.AperFunction,Plated,PTH,ViaDrill
T1C0.400
; #@! TA.AperFunction,Plated,PTH,ComponentDrill
T2C0.650
; #@! TA.AperFunction,Plated,PTH,ComponentDrill
T3C1.500
%
G90
G05
T1
X144.78Y-84.328
X148.336Y-108.458
X148.336Y-109.728
X148.844Y-90.424
X151.13Y-91.948
X152.654Y-96.52
X152.654Y-106.426
X153.162Y-114.808
X153.416Y-104.14
X153.416Y-112.014
X154.178Y-119.38
X154.94Y-114.554
X155.194Y-117.094
X155.956Y-109.22
X155.956Y-113.284
X155.956Y-115.824
X156.464Y-86.614
X156.464Y-87.884
X156.464Y-89.154
X156.464Y-90.424
X156.464Y-91.694
X157.48Y-87.376
X157.734Y-89.154
X157.734Y-93.218
X157.734Y-109.474
X157.915Y-85.308
X158.466Y-100.36
X159.766Y-96.774
X159.766Y-104.648
X160.02Y-100.076
X160.274Y-83.82
X161.036Y-97.79
X161.29Y-114.808
X161.544Y-90.424
X162.052Y-115.824
X162.814Y-105.156
X162.916Y-113.03
X165.354Y-117.094
X168.646Y-89.652
X168.656Y-96.52
X168.91Y-104.394
X169.164Y-111.252
X169.417Y-88.64
X169.654Y-103.603
X169.672Y-95.758
X169.926Y-110.49
X170.18Y-114.3
T2
X148.585Y-94.488
X149.855Y-94.488
X151.125Y-94.488
T3
X175.508Y-93.104
X175.508Y-96.604
X175.508Y-100.104
X175.508Y-103.604
X175.508Y-107.104
X175.508Y-110.604
X179.008Y-93.104
X179.008Y-96.604
X179.008Y-100.104
X179.008Y-103.604
X179.008Y-107.104
X179.008Y-110.604
T0
M30
