%TF.GenerationSoftware,KiCad,Pcbnew,(6.0.1)*%
%TF.CreationDate,2023-02-26T19:23:05-08:00*%
%TF.ProjectId,CAN-Digital-Output-12V,43414e2d-4469-4676-9974-616c2d4f7574,rev?*%
%TF.SameCoordinates,Original*%
%TF.FileFunction,Paste,Top*%
%TF.FilePolarity,Positive*%
%FSLAX46Y46*%
G04 Gerber Fmt 4.6, Leading zero omitted, Abs format (unit mm)*
G04 Created by KiCad (PCBNEW (6.0.1)) date 2023-02-26 19:23:05*
%MOMM*%
%LPD*%
G01*
G04 APERTURE LIST*
G04 Aperture macros list*
%AMRoundRect*
0 Rectangle with rounded corners*
0 $1 Rounding radius*
0 $2 $3 $4 $5 $6 $7 $8 $9 X,Y pos of 4 corners*
0 Add a 4 corners polygon primitive as box body*
4,1,4,$2,$3,$4,$5,$6,$7,$8,$9,$2,$3,0*
0 Add four circle primitives for the rounded corners*
1,1,$1+$1,$2,$3*
1,1,$1+$1,$4,$5*
1,1,$1+$1,$6,$7*
1,1,$1+$1,$8,$9*
0 Add four rect primitives between the rounded corners*
20,1,$1+$1,$2,$3,$4,$5,0*
20,1,$1+$1,$4,$5,$6,$7,0*
20,1,$1+$1,$6,$7,$8,$9,0*
20,1,$1+$1,$8,$9,$2,$3,0*%
G04 Aperture macros list end*
%ADD10R,2.000000X1.500000*%
%ADD11R,2.000000X3.800000*%
%ADD12RoundRect,0.237500X-0.250000X-0.237500X0.250000X-0.237500X0.250000X0.237500X-0.250000X0.237500X0*%
%ADD13R,0.900000X2.000000*%
%ADD14R,1.800000X2.100000*%
%ADD15RoundRect,0.250000X0.337500X0.475000X-0.337500X0.475000X-0.337500X-0.475000X0.337500X-0.475000X0*%
%ADD16RoundRect,0.237500X0.250000X0.237500X-0.250000X0.237500X-0.250000X-0.237500X0.250000X-0.237500X0*%
%ADD17RoundRect,0.237500X0.287500X0.237500X-0.287500X0.237500X-0.287500X-0.237500X0.287500X-0.237500X0*%
%ADD18RoundRect,0.150000X-0.875000X-0.150000X0.875000X-0.150000X0.875000X0.150000X-0.875000X0.150000X0*%
%ADD19RoundRect,0.150000X0.825000X0.150000X-0.825000X0.150000X-0.825000X-0.150000X0.825000X-0.150000X0*%
%ADD20RoundRect,0.237500X0.300000X0.237500X-0.300000X0.237500X-0.300000X-0.237500X0.300000X-0.237500X0*%
%ADD21RoundRect,0.237500X-0.300000X-0.237500X0.300000X-0.237500X0.300000X0.237500X-0.300000X0.237500X0*%
%ADD22RoundRect,0.250000X-0.337500X-0.475000X0.337500X-0.475000X0.337500X0.475000X-0.337500X0.475000X0*%
%ADD23RoundRect,0.150000X-0.825000X-0.150000X0.825000X-0.150000X0.825000X0.150000X-0.825000X0.150000X0*%
%ADD24RoundRect,0.250000X-0.400000X-0.625000X0.400000X-0.625000X0.400000X0.625000X-0.400000X0.625000X0*%
G04 APERTURE END LIST*
D10*
%TO.C,U1*%
X144678000Y-86854000D03*
X144678000Y-89154000D03*
D11*
X150978000Y-89154000D03*
D10*
X144678000Y-91454000D03*
%TD*%
D12*
%TO.C,R9*%
X161901500Y-99314000D03*
X163726500Y-99314000D03*
%TD*%
D13*
%TO.C,S1*%
X148844000Y-97454000D03*
X146304000Y-97454000D03*
X146304000Y-106254000D03*
X148844000Y-106254000D03*
X151384000Y-106254000D03*
X151384000Y-97454000D03*
%TD*%
D14*
%TO.C,Y1*%
X146692000Y-116869022D03*
X146692000Y-113969022D03*
X144392000Y-113969022D03*
X144392000Y-116869022D03*
%TD*%
D15*
%TO.C,C7*%
X159025500Y-94996000D03*
X156950500Y-94996000D03*
%TD*%
D12*
%TO.C,R6*%
X161901500Y-84582000D03*
X163726500Y-84582000D03*
%TD*%
D16*
%TO.C,R18*%
X157122500Y-102616000D03*
X155297500Y-102616000D03*
%TD*%
D10*
%TO.C,U6*%
X166014000Y-91934000D03*
X166014000Y-94234000D03*
X166014000Y-96534000D03*
D11*
X172314000Y-94234000D03*
%TD*%
D17*
%TO.C,D3*%
X163689000Y-101092000D03*
X161939000Y-101092000D03*
%TD*%
D12*
%TO.C,R11*%
X161901500Y-88138000D03*
X163726500Y-88138000D03*
%TD*%
D17*
%TO.C,D1*%
X163689000Y-86360000D03*
X161939000Y-86360000D03*
%TD*%
D10*
%TO.C,U4*%
X166014000Y-84568000D03*
X166014000Y-86868000D03*
X166014000Y-89168000D03*
D11*
X172314000Y-86868000D03*
%TD*%
D12*
%TO.C,R7*%
X153265500Y-94996000D03*
X155090500Y-94996000D03*
%TD*%
%TO.C,R8*%
X161901500Y-91948000D03*
X163726500Y-91948000D03*
%TD*%
%TO.C,R2*%
X155297500Y-106172000D03*
X157122500Y-106172000D03*
%TD*%
D18*
%TO.C,U5*%
X150290000Y-109474000D03*
X150290000Y-110744000D03*
X150290000Y-112014000D03*
X150290000Y-113284000D03*
X150290000Y-114554000D03*
X150290000Y-115824000D03*
X150290000Y-117094000D03*
X150290000Y-118364000D03*
X150290000Y-119634000D03*
X159590000Y-119634000D03*
X159590000Y-118364000D03*
X159590000Y-117094000D03*
X159590000Y-115824000D03*
X159590000Y-114554000D03*
X159590000Y-113284000D03*
X159590000Y-112014000D03*
X159590000Y-110744000D03*
X159590000Y-109474000D03*
%TD*%
D12*
%TO.C,R14*%
X161901500Y-110236000D03*
X163726500Y-110236000D03*
%TD*%
D19*
%TO.C,U3*%
X159701000Y-92964000D03*
X159701000Y-91694000D03*
X159701000Y-90424000D03*
X159701000Y-89154000D03*
X159701000Y-87884000D03*
X159701000Y-86614000D03*
X159701000Y-85344000D03*
X154751000Y-85344000D03*
X154751000Y-86614000D03*
X154751000Y-87884000D03*
X154751000Y-89154000D03*
X154751000Y-90424000D03*
X154751000Y-91694000D03*
X154751000Y-92964000D03*
%TD*%
D12*
%TO.C,R1*%
X155297500Y-104140000D03*
X157122500Y-104140000D03*
%TD*%
D20*
%TO.C,C4*%
X146912500Y-118975022D03*
X145187500Y-118975022D03*
%TD*%
D10*
%TO.C,U8*%
X166014000Y-106666000D03*
X166014000Y-108966000D03*
X166014000Y-111266000D03*
D11*
X172314000Y-108966000D03*
%TD*%
D12*
%TO.C,R3*%
X161901500Y-111760000D03*
X163726500Y-111760000D03*
%TD*%
D20*
%TO.C,C6*%
X157072500Y-107696000D03*
X155347500Y-107696000D03*
%TD*%
D17*
%TO.C,D4*%
X163689000Y-108458000D03*
X161939000Y-108458000D03*
%TD*%
D16*
%TO.C,R4*%
X160424500Y-107696000D03*
X158599500Y-107696000D03*
%TD*%
%TO.C,R19*%
X160424500Y-101600000D03*
X158599500Y-101600000D03*
%TD*%
D21*
%TO.C,C5*%
X145187500Y-111863022D03*
X146912500Y-111863022D03*
%TD*%
D15*
%TO.C,C2*%
X149119500Y-84328000D03*
X147044500Y-84328000D03*
%TD*%
D12*
%TO.C,R10*%
X161901500Y-106680000D03*
X163726500Y-106680000D03*
%TD*%
D22*
%TO.C,C1*%
X144250500Y-93980000D03*
X146325500Y-93980000D03*
%TD*%
D23*
%TO.C,U2*%
X167705000Y-113665000D03*
X167705000Y-114935000D03*
X167705000Y-116205000D03*
X167705000Y-117475000D03*
X172655000Y-117475000D03*
X172655000Y-116205000D03*
X172655000Y-114935000D03*
X172655000Y-113665000D03*
%TD*%
D17*
%TO.C,D2*%
X163689000Y-93726000D03*
X161939000Y-93726000D03*
%TD*%
D12*
%TO.C,R12*%
X161901500Y-95504000D03*
X163726500Y-95504000D03*
%TD*%
D16*
%TO.C,R15*%
X157122500Y-97536000D03*
X155297500Y-97536000D03*
%TD*%
%TO.C,R16*%
X157122500Y-99314000D03*
X155297500Y-99314000D03*
%TD*%
D24*
%TO.C,R5*%
X162026000Y-119380000D03*
X165126000Y-119380000D03*
%TD*%
D10*
%TO.C,U7*%
X166014000Y-99300000D03*
X166014000Y-101600000D03*
X166014000Y-103900000D03*
D11*
X172314000Y-101600000D03*
%TD*%
D16*
%TO.C,R17*%
X157122500Y-101092000D03*
X155297500Y-101092000D03*
%TD*%
D21*
%TO.C,C3*%
X163475500Y-114808000D03*
X165200500Y-114808000D03*
%TD*%
D12*
%TO.C,R13*%
X161901500Y-102870000D03*
X163726500Y-102870000D03*
%TD*%
M02*
