%TF.GenerationSoftware,KiCad,Pcbnew,(6.0.1)*%
%TF.CreationDate,2023-02-26T19:23:05-08:00*%
%TF.ProjectId,CAN-Digital-Output-12V,43414e2d-4469-4676-9974-616c2d4f7574,rev?*%
%TF.SameCoordinates,Original*%
%TF.FileFunction,Legend,Top*%
%TF.FilePolarity,Positive*%
%FSLAX46Y46*%
G04 Gerber Fmt 4.6, Leading zero omitted, Abs format (unit mm)*
G04 Created by KiCad (PCBNEW (6.0.1)) date 2023-02-26 19:23:05*
%MOMM*%
%LPD*%
G01*
G04 APERTURE LIST*
%ADD10C,0.100000*%
%ADD11C,0.150000*%
%ADD12C,0.120000*%
%ADD13C,0.127000*%
%ADD14C,0.200000*%
G04 APERTURE END LIST*
D10*
X143798952Y-109943428D02*
X144084666Y-109943428D01*
X144141809Y-109962476D01*
X144179904Y-110000571D01*
X144198952Y-110057714D01*
X144198952Y-110095809D01*
X144198952Y-109752952D02*
X143798952Y-109752952D01*
X143989428Y-109752952D02*
X143989428Y-109524380D01*
X144198952Y-109524380D02*
X143798952Y-109524380D01*
X143989428Y-109200571D02*
X144008476Y-109143428D01*
X144027523Y-109124380D01*
X144065619Y-109105333D01*
X144122761Y-109105333D01*
X144160857Y-109124380D01*
X144179904Y-109143428D01*
X144198952Y-109181523D01*
X144198952Y-109333904D01*
X143798952Y-109333904D01*
X143798952Y-109200571D01*
X143818000Y-109162476D01*
X143837047Y-109143428D01*
X143875142Y-109124380D01*
X143913238Y-109124380D01*
X143951333Y-109143428D01*
X143970380Y-109162476D01*
X143989428Y-109200571D01*
X143989428Y-109333904D01*
X144046571Y-108629142D02*
X144046571Y-108324380D01*
X144160857Y-107600571D02*
X144179904Y-107619619D01*
X144198952Y-107676761D01*
X144198952Y-107714857D01*
X144179904Y-107772000D01*
X144141809Y-107810095D01*
X144103714Y-107829142D01*
X144027523Y-107848190D01*
X143970380Y-107848190D01*
X143894190Y-107829142D01*
X143856095Y-107810095D01*
X143818000Y-107772000D01*
X143798952Y-107714857D01*
X143798952Y-107676761D01*
X143818000Y-107619619D01*
X143837047Y-107600571D01*
X144084666Y-107448190D02*
X144084666Y-107257714D01*
X144198952Y-107486285D02*
X143798952Y-107352952D01*
X144198952Y-107219619D01*
X144198952Y-107086285D02*
X143798952Y-107086285D01*
X144198952Y-106857714D01*
X143798952Y-106857714D01*
X144198952Y-106152952D02*
X144198952Y-106381523D01*
X144198952Y-106267238D02*
X143798952Y-106267238D01*
X143856095Y-106305333D01*
X143894190Y-106343428D01*
X143913238Y-106381523D01*
X143837047Y-106000571D02*
X143818000Y-105981523D01*
X143798952Y-105943428D01*
X143798952Y-105848190D01*
X143818000Y-105810095D01*
X143837047Y-105791047D01*
X143875142Y-105772000D01*
X143913238Y-105772000D01*
X143970380Y-105791047D01*
X144198952Y-106019619D01*
X144198952Y-105772000D01*
X143798952Y-105657714D02*
X144198952Y-105524380D01*
X143798952Y-105391047D01*
X144198952Y-104952952D02*
X143798952Y-104952952D01*
X143798952Y-104857714D01*
X143818000Y-104800571D01*
X143856095Y-104762476D01*
X143894190Y-104743428D01*
X143970380Y-104724380D01*
X144027523Y-104724380D01*
X144103714Y-104743428D01*
X144141809Y-104762476D01*
X144179904Y-104800571D01*
X144198952Y-104857714D01*
X144198952Y-104952952D01*
X143798952Y-104476761D02*
X143798952Y-104400571D01*
X143818000Y-104362476D01*
X143856095Y-104324380D01*
X143932285Y-104305333D01*
X144065619Y-104305333D01*
X144141809Y-104324380D01*
X144179904Y-104362476D01*
X144198952Y-104400571D01*
X144198952Y-104476761D01*
X144179904Y-104514857D01*
X144141809Y-104552952D01*
X144065619Y-104572000D01*
X143932285Y-104572000D01*
X143856095Y-104552952D01*
X143818000Y-104514857D01*
X143798952Y-104476761D01*
X143989428Y-103695809D02*
X144008476Y-103638666D01*
X144027523Y-103619619D01*
X144065619Y-103600571D01*
X144122761Y-103600571D01*
X144160857Y-103619619D01*
X144179904Y-103638666D01*
X144198952Y-103676761D01*
X144198952Y-103829142D01*
X143798952Y-103829142D01*
X143798952Y-103695809D01*
X143818000Y-103657714D01*
X143837047Y-103638666D01*
X143875142Y-103619619D01*
X143913238Y-103619619D01*
X143951333Y-103638666D01*
X143970380Y-103657714D01*
X143989428Y-103695809D01*
X143989428Y-103829142D01*
X144198952Y-103372000D02*
X144179904Y-103410095D01*
X144160857Y-103429142D01*
X144122761Y-103448190D01*
X144008476Y-103448190D01*
X143970380Y-103429142D01*
X143951333Y-103410095D01*
X143932285Y-103372000D01*
X143932285Y-103314857D01*
X143951333Y-103276761D01*
X143970380Y-103257714D01*
X144008476Y-103238666D01*
X144122761Y-103238666D01*
X144160857Y-103257714D01*
X144179904Y-103276761D01*
X144198952Y-103314857D01*
X144198952Y-103372000D01*
X144198952Y-102895809D02*
X143989428Y-102895809D01*
X143951333Y-102914857D01*
X143932285Y-102952952D01*
X143932285Y-103029142D01*
X143951333Y-103067238D01*
X144179904Y-102895809D02*
X144198952Y-102933904D01*
X144198952Y-103029142D01*
X144179904Y-103067238D01*
X144141809Y-103086285D01*
X144103714Y-103086285D01*
X144065619Y-103067238D01*
X144046571Y-103029142D01*
X144046571Y-102933904D01*
X144027523Y-102895809D01*
X144198952Y-102705333D02*
X143932285Y-102705333D01*
X144008476Y-102705333D02*
X143970380Y-102686285D01*
X143951333Y-102667238D01*
X143932285Y-102629142D01*
X143932285Y-102591047D01*
X144198952Y-102286285D02*
X143798952Y-102286285D01*
X144179904Y-102286285D02*
X144198952Y-102324380D01*
X144198952Y-102400571D01*
X144179904Y-102438666D01*
X144160857Y-102457714D01*
X144122761Y-102476761D01*
X144008476Y-102476761D01*
X143970380Y-102457714D01*
X143951333Y-102438666D01*
X143932285Y-102400571D01*
X143932285Y-102324380D01*
X143951333Y-102286285D01*
X143837047Y-100482190D02*
X143818000Y-100463142D01*
X143798952Y-100425047D01*
X143798952Y-100329809D01*
X143818000Y-100291714D01*
X143837047Y-100272666D01*
X143875142Y-100253619D01*
X143913238Y-100253619D01*
X143970380Y-100272666D01*
X144198952Y-100501238D01*
X144198952Y-100253619D01*
X143779904Y-99796476D02*
X144294190Y-100139333D01*
X143837047Y-99682190D02*
X143818000Y-99663142D01*
X143798952Y-99625047D01*
X143798952Y-99529809D01*
X143818000Y-99491714D01*
X143837047Y-99472666D01*
X143875142Y-99453619D01*
X143913238Y-99453619D01*
X143970380Y-99472666D01*
X144198952Y-99701238D01*
X144198952Y-99453619D01*
X143798952Y-99110761D02*
X143798952Y-99186952D01*
X143818000Y-99225047D01*
X143837047Y-99244095D01*
X143894190Y-99282190D01*
X143970380Y-99301238D01*
X144122761Y-99301238D01*
X144160857Y-99282190D01*
X144179904Y-99263142D01*
X144198952Y-99225047D01*
X144198952Y-99148857D01*
X144179904Y-99110761D01*
X144160857Y-99091714D01*
X144122761Y-99072666D01*
X144027523Y-99072666D01*
X143989428Y-99091714D01*
X143970380Y-99110761D01*
X143951333Y-99148857D01*
X143951333Y-99225047D01*
X143970380Y-99263142D01*
X143989428Y-99282190D01*
X144027523Y-99301238D01*
X143779904Y-98615523D02*
X144294190Y-98958380D01*
X143837047Y-98501238D02*
X143818000Y-98482190D01*
X143798952Y-98444095D01*
X143798952Y-98348857D01*
X143818000Y-98310761D01*
X143837047Y-98291714D01*
X143875142Y-98272666D01*
X143913238Y-98272666D01*
X143970380Y-98291714D01*
X144198952Y-98520285D01*
X144198952Y-98272666D01*
X143798952Y-98025047D02*
X143798952Y-97986952D01*
X143818000Y-97948857D01*
X143837047Y-97929809D01*
X143875142Y-97910761D01*
X143951333Y-97891714D01*
X144046571Y-97891714D01*
X144122761Y-97910761D01*
X144160857Y-97929809D01*
X144179904Y-97948857D01*
X144198952Y-97986952D01*
X144198952Y-98025047D01*
X144179904Y-98063142D01*
X144160857Y-98082190D01*
X144122761Y-98101238D01*
X144046571Y-98120285D01*
X143951333Y-98120285D01*
X143875142Y-98101238D01*
X143837047Y-98082190D01*
X143818000Y-98063142D01*
X143798952Y-98025047D01*
X143837047Y-97739333D02*
X143818000Y-97720285D01*
X143798952Y-97682190D01*
X143798952Y-97586952D01*
X143818000Y-97548857D01*
X143837047Y-97529809D01*
X143875142Y-97510761D01*
X143913238Y-97510761D01*
X143970380Y-97529809D01*
X144198952Y-97758380D01*
X144198952Y-97510761D01*
X143798952Y-97377428D02*
X143798952Y-97129809D01*
X143951333Y-97263142D01*
X143951333Y-97206000D01*
X143970380Y-97167904D01*
X143989428Y-97148857D01*
X144027523Y-97129809D01*
X144122761Y-97129809D01*
X144160857Y-97148857D01*
X144179904Y-97167904D01*
X144198952Y-97206000D01*
X144198952Y-97320285D01*
X144179904Y-97358380D01*
X144160857Y-97377428D01*
D11*
%TO.C,U1*%
X150114095Y-85812380D02*
X150114095Y-86621904D01*
X150161714Y-86717142D01*
X150209333Y-86764761D01*
X150304571Y-86812380D01*
X150495047Y-86812380D01*
X150590285Y-86764761D01*
X150637904Y-86717142D01*
X150685523Y-86621904D01*
X150685523Y-85812380D01*
X151685523Y-86812380D02*
X151114095Y-86812380D01*
X151399809Y-86812380D02*
X151399809Y-85812380D01*
X151304571Y-85955238D01*
X151209333Y-86050476D01*
X151114095Y-86098095D01*
%TO.C,S1*%
X147216761Y-102615904D02*
X147264380Y-102473047D01*
X147264380Y-102234952D01*
X147216761Y-102139714D01*
X147169142Y-102092095D01*
X147073904Y-102044476D01*
X146978666Y-102044476D01*
X146883428Y-102092095D01*
X146835809Y-102139714D01*
X146788190Y-102234952D01*
X146740571Y-102425428D01*
X146692952Y-102520666D01*
X146645333Y-102568285D01*
X146550095Y-102615904D01*
X146454857Y-102615904D01*
X146359619Y-102568285D01*
X146312000Y-102520666D01*
X146264380Y-102425428D01*
X146264380Y-102187333D01*
X146312000Y-102044476D01*
X147264380Y-101092095D02*
X147264380Y-101663523D01*
X147264380Y-101377809D02*
X146264380Y-101377809D01*
X146407238Y-101473047D01*
X146502476Y-101568285D01*
X146550095Y-101663523D01*
%TO.C,Y1*%
X143740190Y-112085212D02*
X144216380Y-112085212D01*
X143216380Y-112418545D02*
X143740190Y-112085212D01*
X143216380Y-111751879D01*
X144216380Y-110894736D02*
X144216380Y-111466164D01*
X144216380Y-111180450D02*
X143216380Y-111180450D01*
X143359238Y-111275688D01*
X143454476Y-111370926D01*
X143502095Y-111466164D01*
%TO.C,C7*%
X158075333Y-96877142D02*
X158027714Y-96924761D01*
X157884857Y-96972380D01*
X157789619Y-96972380D01*
X157646761Y-96924761D01*
X157551523Y-96829523D01*
X157503904Y-96734285D01*
X157456285Y-96543809D01*
X157456285Y-96400952D01*
X157503904Y-96210476D01*
X157551523Y-96115238D01*
X157646761Y-96020000D01*
X157789619Y-95972380D01*
X157884857Y-95972380D01*
X158027714Y-96020000D01*
X158075333Y-96067619D01*
X158408666Y-95972380D02*
X159075333Y-95972380D01*
X158646761Y-96972380D01*
%TO.C,J4*%
X175982380Y-113363333D02*
X176696666Y-113363333D01*
X176839523Y-113410952D01*
X176934761Y-113506190D01*
X176982380Y-113649047D01*
X176982380Y-113744285D01*
X176315714Y-112458571D02*
X176982380Y-112458571D01*
X175934761Y-112696666D02*
X176649047Y-112934761D01*
X176649047Y-112315714D01*
%TO.C,C4*%
X143597333Y-120245142D02*
X143549714Y-120292761D01*
X143406857Y-120340380D01*
X143311619Y-120340380D01*
X143168761Y-120292761D01*
X143073523Y-120197523D01*
X143025904Y-120102285D01*
X142978285Y-119911809D01*
X142978285Y-119768952D01*
X143025904Y-119578476D01*
X143073523Y-119483238D01*
X143168761Y-119388000D01*
X143311619Y-119340380D01*
X143406857Y-119340380D01*
X143549714Y-119388000D01*
X143597333Y-119435619D01*
X144454476Y-119673714D02*
X144454476Y-120340380D01*
X144216380Y-119292761D02*
X143978285Y-120007047D01*
X144597333Y-120007047D01*
%TO.C,C5*%
X146017333Y-110696164D02*
X145969714Y-110743783D01*
X145826857Y-110791402D01*
X145731619Y-110791402D01*
X145588761Y-110743783D01*
X145493523Y-110648545D01*
X145445904Y-110553307D01*
X145398285Y-110362831D01*
X145398285Y-110219974D01*
X145445904Y-110029498D01*
X145493523Y-109934260D01*
X145588761Y-109839022D01*
X145731619Y-109791402D01*
X145826857Y-109791402D01*
X145969714Y-109839022D01*
X146017333Y-109886641D01*
X146922095Y-109791402D02*
X146445904Y-109791402D01*
X146398285Y-110267593D01*
X146445904Y-110219974D01*
X146541142Y-110172355D01*
X146779238Y-110172355D01*
X146874476Y-110219974D01*
X146922095Y-110267593D01*
X146969714Y-110362831D01*
X146969714Y-110600926D01*
X146922095Y-110696164D01*
X146874476Y-110743783D01*
X146779238Y-110791402D01*
X146541142Y-110791402D01*
X146445904Y-110743783D01*
X146398285Y-110696164D01*
%TO.C,U2*%
X171704095Y-111466380D02*
X171704095Y-112275904D01*
X171751714Y-112371142D01*
X171799333Y-112418761D01*
X171894571Y-112466380D01*
X172085047Y-112466380D01*
X172180285Y-112418761D01*
X172227904Y-112371142D01*
X172275523Y-112275904D01*
X172275523Y-111466380D01*
X172704095Y-111561619D02*
X172751714Y-111514000D01*
X172846952Y-111466380D01*
X173085047Y-111466380D01*
X173180285Y-111514000D01*
X173227904Y-111561619D01*
X173275523Y-111656857D01*
X173275523Y-111752095D01*
X173227904Y-111894952D01*
X172656476Y-112466380D01*
X173275523Y-112466380D01*
%TO.C,JP1*%
X173664666Y-118832380D02*
X173664666Y-119546666D01*
X173617047Y-119689523D01*
X173521809Y-119784761D01*
X173378952Y-119832380D01*
X173283714Y-119832380D01*
X174140857Y-119832380D02*
X174140857Y-118832380D01*
X174521809Y-118832380D01*
X174617047Y-118880000D01*
X174664666Y-118927619D01*
X174712285Y-119022857D01*
X174712285Y-119165714D01*
X174664666Y-119260952D01*
X174617047Y-119308571D01*
X174521809Y-119356190D01*
X174140857Y-119356190D01*
X175664666Y-119832380D02*
X175093238Y-119832380D01*
X175378952Y-119832380D02*
X175378952Y-118832380D01*
X175283714Y-118975238D01*
X175188476Y-119070476D01*
X175093238Y-119118095D01*
%TO.C,R5*%
X166965333Y-119832380D02*
X166632000Y-119356190D01*
X166393904Y-119832380D02*
X166393904Y-118832380D01*
X166774857Y-118832380D01*
X166870095Y-118880000D01*
X166917714Y-118927619D01*
X166965333Y-119022857D01*
X166965333Y-119165714D01*
X166917714Y-119260952D01*
X166870095Y-119308571D01*
X166774857Y-119356190D01*
X166393904Y-119356190D01*
X167870095Y-118832380D02*
X167393904Y-118832380D01*
X167346285Y-119308571D01*
X167393904Y-119260952D01*
X167489142Y-119213333D01*
X167727238Y-119213333D01*
X167822476Y-119260952D01*
X167870095Y-119308571D01*
X167917714Y-119403809D01*
X167917714Y-119641904D01*
X167870095Y-119737142D01*
X167822476Y-119784761D01*
X167727238Y-119832380D01*
X167489142Y-119832380D01*
X167393904Y-119784761D01*
X167346285Y-119737142D01*
D12*
%TO.C,U1*%
X149738000Y-92564000D02*
X149738000Y-91304000D01*
X143728000Y-85744000D02*
X149738000Y-85744000D01*
X145978000Y-92564000D02*
X149738000Y-92564000D01*
X149738000Y-85744000D02*
X149738000Y-87004000D01*
%TO.C,R9*%
X162559276Y-98791500D02*
X163068724Y-98791500D01*
X162559276Y-99836500D02*
X163068724Y-99836500D01*
D13*
%TO.C,S1*%
X152444000Y-98254000D02*
X152444000Y-105454000D01*
X145244000Y-105454000D02*
X145244000Y-98254000D01*
D14*
X148844000Y-95927000D02*
G75*
G03*
X148844000Y-95927000I-100000J0D01*
G01*
D12*
%TO.C,Y1*%
X147792000Y-118119022D02*
X147792000Y-112719022D01*
X143292000Y-118119022D02*
X147792000Y-118119022D01*
%TO.C,C7*%
X158249252Y-95731000D02*
X157726748Y-95731000D01*
X158249252Y-94261000D02*
X157726748Y-94261000D01*
%TO.C,R6*%
X162559276Y-84059500D02*
X163068724Y-84059500D01*
X162559276Y-85104500D02*
X163068724Y-85104500D01*
%TO.C,R18*%
X156464724Y-102093500D02*
X155955276Y-102093500D01*
X156464724Y-103138500D02*
X155955276Y-103138500D01*
%TO.C,U6*%
X171074000Y-97644000D02*
X171074000Y-96384000D01*
X167314000Y-97644000D02*
X171074000Y-97644000D01*
X165064000Y-90824000D02*
X171074000Y-90824000D01*
X171074000Y-90824000D02*
X171074000Y-92084000D01*
%TO.C,D3*%
X164474000Y-101827000D02*
X164474000Y-100357000D01*
X164474000Y-100357000D02*
X162014000Y-100357000D01*
X162014000Y-101827000D02*
X164474000Y-101827000D01*
%TO.C,R11*%
X162559276Y-87615500D02*
X163068724Y-87615500D01*
X162559276Y-88660500D02*
X163068724Y-88660500D01*
%TO.C,D1*%
X164474000Y-87095000D02*
X164474000Y-85625000D01*
X162014000Y-87095000D02*
X164474000Y-87095000D01*
X164474000Y-85625000D02*
X162014000Y-85625000D01*
D13*
%TO.C,J4*%
X185778000Y-89354000D02*
X178138000Y-89354000D01*
X178138000Y-83179000D02*
X186796000Y-83179000D01*
X178138000Y-89354000D02*
X178138000Y-83179000D01*
X185778000Y-114354000D02*
X185778000Y-89354000D01*
X178138000Y-114354000D02*
X185778000Y-114354000D01*
X178138000Y-120529000D02*
X178138000Y-114354000D01*
X186796000Y-120529000D02*
X178138000Y-120529000D01*
D14*
X175308000Y-113254000D02*
G75*
G03*
X175308000Y-113254000I-100000J0D01*
G01*
D12*
%TO.C,U4*%
X171074000Y-90278000D02*
X171074000Y-89018000D01*
X167314000Y-90278000D02*
X171074000Y-90278000D01*
X165064000Y-83458000D02*
X171074000Y-83458000D01*
X171074000Y-83458000D02*
X171074000Y-84718000D01*
%TO.C,R7*%
X153923276Y-94473500D02*
X154432724Y-94473500D01*
X153923276Y-95518500D02*
X154432724Y-95518500D01*
%TO.C,R8*%
X162559276Y-91425500D02*
X163068724Y-91425500D01*
X162559276Y-92470500D02*
X163068724Y-92470500D01*
%TO.C,R2*%
X155955276Y-105649500D02*
X156464724Y-105649500D01*
X155955276Y-106694500D02*
X156464724Y-106694500D01*
%TO.C,U5*%
X154940000Y-120439000D02*
X151080000Y-120439000D01*
X154940000Y-120439000D02*
X158800000Y-120439000D01*
X151080000Y-108669000D02*
X151080000Y-108914000D01*
X151080000Y-108914000D02*
X149265000Y-108914000D01*
X154940000Y-108669000D02*
X158800000Y-108669000D01*
X151080000Y-120439000D02*
X151080000Y-120194000D01*
X158800000Y-108669000D02*
X158800000Y-108914000D01*
X158800000Y-120439000D02*
X158800000Y-120194000D01*
X154940000Y-108669000D02*
X151080000Y-108669000D01*
%TO.C,R14*%
X162559276Y-109713500D02*
X163068724Y-109713500D01*
X162559276Y-110758500D02*
X163068724Y-110758500D01*
%TO.C,U3*%
X157226000Y-84719000D02*
X155276000Y-84719000D01*
X157226000Y-84719000D02*
X159176000Y-84719000D01*
X157226000Y-93589000D02*
X155276000Y-93589000D01*
X157226000Y-93589000D02*
X160676000Y-93589000D01*
%TO.C,R1*%
X155955276Y-104662500D02*
X156464724Y-104662500D01*
X155955276Y-103617500D02*
X156464724Y-103617500D01*
%TO.C,C4*%
X146196267Y-118465022D02*
X145903733Y-118465022D01*
X146196267Y-119485022D02*
X145903733Y-119485022D01*
%TO.C,U8*%
X171074000Y-112376000D02*
X171074000Y-111116000D01*
X171074000Y-105556000D02*
X171074000Y-106816000D01*
X167314000Y-112376000D02*
X171074000Y-112376000D01*
X165064000Y-105556000D02*
X171074000Y-105556000D01*
%TO.C,R3*%
X162559276Y-112282500D02*
X163068724Y-112282500D01*
X162559276Y-111237500D02*
X163068724Y-111237500D01*
%TO.C,J3*%
X149345000Y-95598000D02*
X149345000Y-95051471D01*
X149345000Y-93378000D02*
X151820000Y-93378000D01*
X151820000Y-94180470D02*
X151820000Y-93378000D01*
X149345000Y-93924529D02*
X149345000Y-93378000D01*
X149345000Y-95598000D02*
X151820000Y-95598000D01*
X147825000Y-95598000D02*
X147825000Y-94488000D01*
X148585000Y-95598000D02*
X147825000Y-95598000D01*
X151820000Y-95598000D02*
X151820000Y-94795530D01*
%TO.C,C6*%
X156356267Y-107186000D02*
X156063733Y-107186000D01*
X156356267Y-108206000D02*
X156063733Y-108206000D01*
%TO.C,D4*%
X164474000Y-109193000D02*
X164474000Y-107723000D01*
X162014000Y-109193000D02*
X164474000Y-109193000D01*
X164474000Y-107723000D02*
X162014000Y-107723000D01*
%TO.C,R4*%
X159766724Y-107173500D02*
X159257276Y-107173500D01*
X159766724Y-108218500D02*
X159257276Y-108218500D01*
%TO.C,R19*%
X159766724Y-101077500D02*
X159257276Y-101077500D01*
X159766724Y-102122500D02*
X159257276Y-102122500D01*
%TO.C,C5*%
X145903733Y-112373022D02*
X146196267Y-112373022D01*
X145903733Y-111353022D02*
X146196267Y-111353022D01*
%TO.C,C2*%
X148343252Y-85063000D02*
X147820748Y-85063000D01*
X148343252Y-83593000D02*
X147820748Y-83593000D01*
%TO.C,R10*%
X162559276Y-107202500D02*
X163068724Y-107202500D01*
X162559276Y-106157500D02*
X163068724Y-106157500D01*
%TO.C,C1*%
X145026748Y-93245000D02*
X145549252Y-93245000D01*
X145026748Y-94715000D02*
X145549252Y-94715000D01*
%TO.C,U2*%
X170180000Y-113010000D02*
X172130000Y-113010000D01*
X170180000Y-118130000D02*
X168230000Y-118130000D01*
X170180000Y-118130000D02*
X172130000Y-118130000D01*
X170180000Y-113010000D02*
X166730000Y-113010000D01*
%TO.C,D2*%
X164474000Y-92991000D02*
X162014000Y-92991000D01*
X162014000Y-94461000D02*
X164474000Y-94461000D01*
X164474000Y-94461000D02*
X164474000Y-92991000D01*
%TO.C,JP1*%
X172850000Y-118380000D02*
X172850000Y-120380000D01*
X172850000Y-120380000D02*
X170050000Y-120380000D01*
X170050000Y-118380000D02*
X172850000Y-118380000D01*
X170050000Y-120380000D02*
X170050000Y-118380000D01*
%TO.C,R12*%
X162559276Y-94981500D02*
X163068724Y-94981500D01*
X162559276Y-96026500D02*
X163068724Y-96026500D01*
%TO.C,R15*%
X156464724Y-97013500D02*
X155955276Y-97013500D01*
X156464724Y-98058500D02*
X155955276Y-98058500D01*
%TO.C,R16*%
X156464724Y-98791500D02*
X155955276Y-98791500D01*
X156464724Y-99836500D02*
X155955276Y-99836500D01*
%TO.C,R5*%
X162848936Y-120290000D02*
X164303064Y-120290000D01*
X162848936Y-118470000D02*
X164303064Y-118470000D01*
%TO.C,U7*%
X171074000Y-98190000D02*
X171074000Y-99450000D01*
X165064000Y-98190000D02*
X171074000Y-98190000D01*
X171074000Y-105010000D02*
X171074000Y-103750000D01*
X167314000Y-105010000D02*
X171074000Y-105010000D01*
%TO.C,R17*%
X156464724Y-101614500D02*
X155955276Y-101614500D01*
X156464724Y-100569500D02*
X155955276Y-100569500D01*
%TO.C,C3*%
X164191733Y-114298000D02*
X164484267Y-114298000D01*
X164191733Y-115318000D02*
X164484267Y-115318000D01*
%TO.C,R13*%
X162559276Y-102347500D02*
X163068724Y-102347500D01*
X162559276Y-103392500D02*
X163068724Y-103392500D01*
%TD*%
M02*
